<svg width="1920.000000" height="1663.000000" viewBox="0 0 1920 1663" fill="none" xmlns="http://www.w3.org/2000/svg" xmlns:xlink="http://www.w3.org/1999/xlink">
	<desc>
			Created with Pixso.
	</desc>
	<defs>
		<clipPath id="clip8_4">
			<rect id="Frame 109" rx="-0.500000" width="1919.000000" height="1662.000000" transform="translate(0.500000 0.500000)" fill="white" fill-opacity="0"/>
		</clipPath>
		<linearGradient x1="1440.000122" y1="1412.614990" x2="1440.000122" y2="527.535522" id="paint_linear_8_7_0" gradientUnits="userSpaceOnUse">
			<stop stop-color="#93CADF"/>
			<stop offset="1.000000" stop-color="#FFFFFF"/>
		</linearGradient>
		<linearGradient x1="1578.000000" y1="1107.000000" x2="350.000000" y2="1107.000000" id="paint_linear_8_8_0" gradientUnits="userSpaceOnUse">
			<stop stop-color="#FFFFFF"/>
			<stop offset="1.000000" stop-color="#F4F4F4"/>
		</linearGradient>
		<linearGradient x1="1541.105225" y1="2046.400391" x2="31.691162" y2="841.924011" id="paint_linear_8_9_0" gradientUnits="userSpaceOnUse">
			<stop stop-color="#FFFFFF"/>
			<stop offset="1.000000" stop-color="#93CADF"/>
		</linearGradient>
	</defs>
	<g clip-path="url(#clip8_4)">
		<path id="Intersect" d="M-136 1313.11L-136 326C-13.37 423.29 122.13 510.27 270.27 593.35C488.51 715.7 718.2 811.88 960 879.79L960 1659.91C563.16 1608.69 198.41 1491.98 -136 1313.11Z" fill="#93CADF" fill-opacity="1.000000" fill-rule="nonzero"/>
		<path id="Intersect" d="M-136 1313.11L-136 326C-13.37 423.29 122.13 510.27 270.27 593.35C488.51 715.7 718.2 811.88 960 879.79L960 1659.91C563.16 1608.69 198.41 1491.98 -136 1313.11Z" fill="#93CADF" fill-opacity="1.000000" fill-rule="nonzero"/>
		<path id="Intersect" d="M960 710.2C1381.81 557.95 1745.33 317.97 2056 0L2056 991.37C1854.71 1117.25 1636.3 1219.84 1400.25 1298.49C1254.85 1346.94 1108.03 1381.09 960 1403.27L960 710.2Z" fill="#93CADF" fill-opacity="1.000000" fill-rule="nonzero"/>
		<path id="Intersect" d="M960 710.2C1381.81 557.95 1745.33 317.97 2056 0L2056 991.37C1854.71 1117.25 1636.3 1219.84 1400.25 1298.49C1254.85 1346.94 1108.03 1381.09 960 1403.27L960 710.2Z" fill="#93CADF" fill-opacity="1.000000" fill-rule="nonzero"/>
		<path id="Intersect" d="M960 1170.19C1381.81 1017.95 1745.33 777.97 2056 460L2056 991.37C1854.71 1117.25 1636.3 1219.84 1400.25 1298.49C1254.85 1346.94 1108.03 1381.09 960 1403.27L960 1170.19Z" fill="#93CADF" fill-opacity="1.000000" fill-rule="nonzero"/>
		<path id="Intersect" d="M960 1170.19C1381.81 1017.95 1745.33 777.97 2056 460L2056 991.37C1854.71 1117.25 1636.3 1219.84 1400.25 1298.49C1254.85 1346.94 1108.03 1381.09 960 1403.27L960 1170.19Z" fill="url(#paint_linear_8_7_0)" fill-opacity="0.800000" fill-rule="nonzero"/>
		<path id="Intersect" d="M-136 1316.47L-136 849.36C-13.37 946.65 122.13 1033.63 270.27 1116.72C488.51 1239.06 718.2 1335.24 960 1403.16L960 1663.27C563.16 1612.05 198.41 1495.34 -136 1316.47Z" fill="#93CADF" fill-opacity="1.000000" fill-rule="nonzero"/>
		<path id="Intersect" d="M-136 1316.47L-136 849.36C-13.37 946.65 122.13 1033.63 270.27 1116.72C488.51 1239.06 718.2 1335.24 960 1403.16L960 1663.27C563.16 1612.05 198.41 1495.34 -136 1316.47Z" fill="url(#paint_linear_8_9_0)" fill-opacity="0.800000" fill-rule="nonzero"/>
	</g>
</svg>
